<svg width="72" height="69" viewBox="0 0 72 69" fill="none" xmlns="http://www.w3.org/2000/svg">
<path d="M48 59.6842V54C48 50.9849 46.7357 48.0933 44.4853 45.9613C42.2348 43.8293 39.1826 42.6316 36 42.6316H15C11.8174 42.6316 8.76516 43.8293 6.51472 45.9613C4.26428 48.0933 3 50.9849 3 54V59.6842M60 22.7368V39.7895M69 31.2631H51M37.5 19.8947C37.5 26.1733 32.1274 31.2631 25.5 31.2631C18.8726 31.2631 13.5 26.1733 13.5 19.8947C13.5 13.6161 18.8726 8.52631 25.5 8.52631C32.1274 8.52631 37.5 13.6161 37.5 19.8947Z" stroke="#F9AE33" stroke-width="4" stroke-linecap="round" stroke-linejoin="round"/>
</svg>
